<svg id="SvgjsSvg1001" width="288" height="288" xmlns="http://www.w3.org/2000/svg" version="1.1" xmlns:xlink="http://www.w3.org/1999/xlink" xmlns:svgjs="http://svgjs.com/svgjs"><defs id="SvgjsDefs1002"></defs><g id="SvgjsG1008"><svg xmlns="http://www.w3.org/2000/svg" viewBox="0 0 64 64" width="288" height="288"><path fill="#2962ff" d="M60,28a2,2,0,0,0-2,0L32,42.7,6,28a2,2,0,0,0-3,1.74V47a6,6,0,0,0,6,6H55a6,6,0,0,0,6-6V29.75A2,2,0,0,0,60,28Z" class="color2962ff svgShape"></path><path fill="#2962ff" d="M55,11H9a6,6,0,0,0-6,6v3.75a2,2,0,0,0,1,1.74L31,37.74a2,2,0,0,0,2,0L60,22.49a2,2,0,0,0,1-1.74V17A6,6,0,0,0,55,11Z" class="color2962ff svgShape"></path></svg></g></svg>