<svg id="SvgjsSvg1025" width="288" height="288" xmlns="http://www.w3.org/2000/svg" version="1.1" xmlns:xlink="http://www.w3.org/1999/xlink" xmlns:svgjs="http://svgjs.com/svgjs"><defs id="SvgjsDefs1026"></defs><g id="SvgjsG1027"><svg xmlns="http://www.w3.org/2000/svg" viewBox="0 0 16 16" width="288" height="288"><path fill="#1976d2" d="M14 0H2C.897 0 0 .897 0 2v12c0 1.103.897 2 2 2h12c1.103 0 2-.897 2-2V2c0-1.103-.897-2-2-2z" class="color1976D2 svgShape"></path><path fill="#fafafa" fill-rule="evenodd" d="M13.5 8H11V6c0-.552.448-.5 1-.5h1V3h-2a3 3 0 0 0-3 3v2H6v2.5h2V16h3v-5.5h1.5l1-2.5z" clip-rule="evenodd" class="colorFAFAFA svgShape"></path></svg></g></svg>