<svg id="SvgjsSvg1327" width="288" height="288" xmlns="http://www.w3.org/2000/svg" version="1.1" xmlns:xlink="http://www.w3.org/1999/xlink" xmlns:svgjs="http://svgjs.com/svgjs"><defs id="SvgjsDefs1328"></defs><g id="SvgjsG1329"><svg xmlns="http://www.w3.org/2000/svg" enable-background="new 0 0 24 24" viewBox="0 0 24 24" width="288" height="288"><path fill="#ffffff" d="M14.714,8.669l-2.4,2.235l-2.228-4.496l1.151-2.585c0.291-0.516,0.767-0.522,1.058,0L14.714,8.669z" class="colorFFA000 svgShape"></path><path fill="#ffffff" d="M12.314,10.903l-8.979,8.351l6.751-12.846L12.314,10.903z" class="colorF57F17 svgShape"></path><path fill="#ffffff" d="M17.346,5.251c0.43-0.41,0.873-0.271,0.985,0.31l2.334,13.58l-7.742,4.648C12.651,23.941,11.931,24,11.931,24s-0.655-0.08-0.906-0.218l-7.689-4.528L17.346,5.251z" class="colorFFCA28 svgShape"></path><path fill="#ffffff" d="M10.086,6.408L3.336,19.254L6.344,0.477c0.113-0.582,0.443-0.641,0.74-0.126L10.086,6.408z" class="colorFFA000 svgShape"></path></svg></g></svg>