<svg id="SvgjsSvg1088" width="288" height="288" xmlns="http://www.w3.org/2000/svg" version="1.1" xmlns:xlink="http://www.w3.org/1999/xlink" xmlns:svgjs="http://svgjs.com/svgjs"><defs id="SvgjsDefs1089"></defs><g id="SvgjsG1090"><svg xmlns="http://www.w3.org/2000/svg" aria-label="HTML5" viewBox="0 0 512 512" width="288" height="288"><path fill="#ffffff" d="M71 460L30 0h451l-41 460-185 52" class="colore34f26 svgShape"></path><path fill="#ffffff" d="M256 472l149-41 35-394H256" class="coloref652a svgShape"></path><path fill="#ffffff" d="M256 208h-75l-5-58h80V94H114l15 171h127zm-1 147l-63-17-4-45h-56l7 89 116 32z" class="colorebebeb svgShape"></path><path fill="#ffffff" d="M255 208v57h70l-7 73-63 17v59l116-32 16-174zm0-114v56h137l5-56z" class="colorfff svgShape"></path></svg></g></svg>